<svg id="visual" viewBox="0 0 900 600" width="900" height="600" xmlns="http://www.w3.org/2000/svg" xmlns:xlink="http://www.w3.org/1999/xlink" version="1.1"><rect x="0" y="0" width="900" height="600" fill="#19072b"></rect><g transform="translate(510.2018736520151 328.64134037672477)"><path d="M342.6 -493.9C420.8 -414.8 444.8 -283.6 405.5 -183.9C366.1 -84.2 263.3 -16 203.1 34.1C142.9 84.1 125.2 116.1 98.5 218.7C71.7 321.4 35.9 494.7 -20.3 522.6C-76.4 550.5 -152.8 433 -232.1 347.4C-311.3 261.8 -393.4 208.2 -457 122.5C-520.5 36.9 -565.6 -80.8 -534.3 -172.6C-503.1 -264.4 -395.5 -330.4 -293.8 -401.8C-192 -473.3 -96 -550.1 18.1 -575.1C132.3 -600 264.5 -573.1 342.6 -493.9" fill="#21162d"></path></g></svg>